<svg xmlns="http://www.w3.org/2000/svg" viewBox="0 0 262.129 299.428"><g id="レイヤー_2" data-name="レイヤー 2"><g id="レイヤー_3" data-name="レイヤー 3"><path d="M43.748,299.428c0-72.144,39.319-130.627,87.821-130.627s87.821,58.483,87.821,130.627"/><path d="M260.96,59.552,130.981.181a2,2,0,0,0-1.671,0L1.159,59.556a2,2,0,0,0,0,3.63l25.319,11.73a2,2,0,0,1,1.158,1.749l2.912,88.762c0,6.39,44.825,11.57,100.121,11.57s100.545-5.18,100.545-11.57h0l2.911-88.759a2,2,0,0,1,1.168-1.753L260.96,63.19A2,2,0,0,0,260.96,59.552Zm-49.6,94.313h0c0,5.111-36.2,9.255-80.436,9.255s-80.1-4.144-80.1-9.255L48.572,85.152l80.738,37.405a2,2,0,0,0,1.671,0l82.643-37.749Z"/><path d="M259.968,151.248c-1.67-4.184-4.584-7.111-8.011-7.623l-.3,16.924C255.368,160.062,258.538,156.363,259.968,151.248Z"/><path d="M249.76,160.515l.3-16.924c-3.443.39-6.459,3.212-8.276,7.334C243.032,156.088,246.069,159.9,249.76,160.515Z"/><path d="M250.438,175.782c5.936.1,10.876-7.028,11.035-15.932a23.355,23.355,0,0,0-.578-5.6c-2.126,5-5.933,8.331-10.222,8.254s-7.974-3.539-9.921-8.612a23.357,23.357,0,0,0-.777,5.578C239.817,168.372,244.5,175.676,250.438,175.782Z"/><circle cx="250.723" cy="138.159" r="5.375" transform="translate(27.133 316.926) rotate(-67.5)"/><path d="M248.136,138.3c-2-76,0,0-1.562-75.651a1.9,1.9,0,0,1,3.789-.174c2.773,75.825-.227-.175,2.773,75.825"/><ellipse cx="80.263" cy="126.805" rx="9.009" ry="18.018"/><ellipse cx="183.864" cy="126.805" rx="9.009" ry="18.018"/><path d="M130.181,155.652l-4.33-8.659a1.5,1.5,0,0,1,1.342-2.171h8.659a1.5,1.5,0,0,1,1.342,2.171l-4.33,8.659A1.5,1.5,0,0,1,130.181,155.652Z"/></g></g></svg>